<svg xmlns="http://www.w3.org/2000/svg" xmlns:xlink="http://www.w3.org/1999/xlink" width="500" zoomAndPan="magnify" viewBox="0 0 375 374.999991" height="500" preserveAspectRatio="xMidYMid meet" version="1.0"><defs><clipPath id="faad6575e1"><path d="M 230.410156 262.023438 L 303 262.023438 L 303 302.964844 L 230.410156 302.964844 Z M 230.410156 262.023438 " clip-rule="nonzero"/></clipPath><clipPath id="09ac319f0a"><path d="M 247.660156 262.023438 L 285.71875 262.023438 C 290.292969 262.023438 294.683594 263.839844 297.917969 267.074219 C 301.152344 270.308594 302.96875 274.695312 302.96875 279.273438 L 302.96875 285.714844 C 302.96875 290.289062 301.152344 294.679688 297.917969 297.914062 C 294.683594 301.148438 290.292969 302.964844 285.71875 302.964844 L 247.660156 302.964844 C 243.082031 302.964844 238.695312 301.148438 235.460938 297.914062 C 232.226562 294.679688 230.410156 290.289062 230.410156 285.714844 L 230.410156 279.273438 C 230.410156 274.695312 232.226562 270.308594 235.460938 267.074219 C 238.695312 263.839844 243.082031 262.023438 247.660156 262.023438 Z M 247.660156 262.023438 " clip-rule="nonzero"/></clipPath><clipPath id="d154d5718f"><path d="M 43 38.105469 L 330 38.105469 L 330 337.355469 L 43 337.355469 Z M 43 38.105469 " clip-rule="nonzero"/></clipPath><clipPath id="2c985a8f3d"><path d="M 342 163 L 374.746094 163 L 374.746094 267 L 342 267 Z M 342 163 " clip-rule="nonzero"/></clipPath></defs><g clip-path="url(#faad6575e1)"><g clip-path="url(#09ac319f0a)"><path fill="#aa70e0" d="M 230.410156 262.023438 L 303.019531 262.023438 L 303.019531 302.964844 L 230.410156 302.964844 Z M 230.410156 262.023438 " fill-opacity="1" fill-rule="nonzero"/></g></g><g clip-path="url(#d154d5718f)"><path fill="#aa70e0" d="M 266.398438 337.472656 L 107.367188 337.472656 C 72.34375 337.472656 43.929688 309.058594 43.929688 274.257812 L 43.929688 171.171875 C 43.929688 136.148438 72.34375 107.734375 107.367188 107.734375 L 180.054688 107.734375 L 180.273438 83.503906 C 170.804688 80.640625 163.753906 71.832031 163.753906 61.257812 C 163.753906 48.484375 174.328125 38.128906 187.105469 38.128906 C 199.878906 38.128906 210.453125 48.484375 210.453125 61.257812 C 210.453125 71.832031 203.183594 80.863281 193.492188 83.726562 L 193.269531 107.734375 L 266.398438 107.734375 C 301.203125 107.734375 329.617188 136.148438 329.617188 171.171875 L 329.617188 274.476562 C 329.617188 309.277344 301.203125 337.472656 266.398438 337.472656 Z M 127.191406 237.472656 C 108.46875 237.472656 93.710938 222.714844 93.710938 204.210938 C 93.710938 185.488281 108.46875 170.730469 127.191406 170.730469 C 145.914062 170.730469 160.453125 185.488281 160.453125 204.210938 C 160.453125 222.714844 145.914062 237.472656 127.191406 237.472656 Z M 127.191406 183.945312 C 115.738281 183.945312 106.925781 192.757812 106.925781 204.210938 C 106.925781 215.445312 115.738281 224.253906 127.191406 224.253906 C 138.425781 224.253906 147.457031 215.445312 147.457031 204.210938 C 147.457031 192.757812 138.425781 183.945312 127.191406 183.945312 Z M 246.796875 236.148438 C 228.074219 236.148438 213.09375 221.171875 213.09375 202.667969 C 213.09375 184.167969 228.074219 169.1875 246.796875 169.1875 C 265.078125 169.1875 280.054688 184.167969 280.054688 202.667969 C 280.054688 221.171875 265.078125 236.148438 246.796875 236.148438 Z M 246.796875 182.40625 C 235.34375 182.40625 226.3125 191.65625 226.3125 202.667969 C 226.3125 213.902344 235.34375 223.15625 246.796875 223.15625 C 258.03125 223.15625 266.839844 213.902344 266.839844 202.667969 C 266.839844 191.214844 257.808594 182.40625 246.796875 182.40625 Z M 184.460938 276.238281 C 171.90625 276.238281 160.890625 270.292969 154.722656 265.003906 C 151.859375 262.582031 151.640625 258.175781 154.0625 255.753906 C 156.488281 253.109375 160.453125 252.671875 163.316406 255.3125 C 165.296875 257.074219 184.460938 272.273438 202.742188 255.535156 C 205.386719 253.109375 209.351562 253.109375 212.214844 255.753906 C 214.636719 258.617188 214.636719 262.582031 211.992188 265.226562 C 202.742188 273.15625 193.269531 276.238281 184.460938 276.238281 Z M 184.460938 276.238281 " fill-opacity="1" fill-rule="evenodd"/></g><path fill="#aa70e0" d="M 30.714844 266.765625 L 28.070312 266.765625 C 12.210938 266.765625 -1.003906 253.773438 -1.003906 237.691406 L -1.003906 192.757812 C -1.003906 176.679688 12.210938 163.460938 28.070312 163.460938 L 31.15625 163.460938 C 30.933594 165.886719 30.714844 168.527344 30.714844 171.171875 Z M 30.714844 266.765625 " fill-opacity="1" fill-rule="evenodd"/><g clip-path="url(#2c985a8f3d)"><path fill="#aa70e0" d="M 345.476562 266.765625 L 342.832031 266.765625 L 342.832031 171.171875 C 342.832031 168.308594 342.613281 165.664062 342.390625 163.242188 L 345.476562 163.242188 C 361.777344 163.242188 374.992188 176.238281 374.992188 192.539062 L 374.992188 237.691406 C 374.992188 253.992188 361.777344 266.765625 345.476562 266.765625 Z M 345.476562 266.765625 " fill-opacity="1" fill-rule="evenodd"/></g></svg>