<svg xmlns="http://www.w3.org/2000/svg" xmlns:xlink="http://www.w3.org/1999/xlink" width="500" zoomAndPan="magnify" viewBox="0 0 375 374.999991" height="500" preserveAspectRatio="xMidYMid meet" version="1.0"><defs><clipPath id="051be6b022"><path d="M 27.011719 175.679688 L 47.988281 175.679688 L 47.988281 187.5 L 27.011719 187.5 Z M 27.011719 175.679688 " clip-rule="nonzero"/></clipPath><clipPath id="f399c6ae8a"><path d="M 164 25.449219 L 210 25.449219 L 210 71 L 164 71 Z M 164 25.449219 " clip-rule="nonzero"/></clipPath><clipPath id="df54b65680"><path d="M 11.355469 159 L 42 159 L 42 220 L 11.355469 220 Z M 11.355469 159 " clip-rule="nonzero"/></clipPath><clipPath id="c3ea2476a0"><path d="M 333 159 L 363.855469 159 L 363.855469 220 L 333 220 Z M 333 159 " clip-rule="nonzero"/></clipPath></defs><g clip-path="url(#051be6b022)"><path fill="#aa70e0" d="M 27.011719 175.679688 L 47.976562 175.679688 L 47.976562 187.5 L 27.011719 187.5 Z M 27.011719 175.679688 " fill-opacity="1" fill-rule="nonzero"/></g><path fill="#aa70e0" d="M 136.226562 87.726562 L 238.359375 87.726562 C 266.433594 87.726562 291.949219 99.207031 310.441406 117.699219 C 328.925781 136.183594 340.40625 161.707031 340.40625 189.78125 C 340.40625 217.859375 328.925781 243.378906 310.441406 261.867188 C 291.949219 280.359375 266.433594 291.832031 238.359375 291.832031 L 227.207031 291.832031 L 170.546875 344.636719 C 165.425781 349.394531 157.414062 349.105469 152.648438 343.992188 C 150.375 341.546875 149.253906 338.449219 149.253906 335.359375 L 149.226562 335.359375 L 149.226562 291.832031 L 136.226562 291.832031 C 108.152344 291.832031 82.636719 280.359375 64.144531 261.867188 C 45.652344 243.378906 34.179688 217.859375 34.179688 189.78125 C 34.179688 161.707031 45.652344 136.183594 64.144531 117.699219 C 82.636719 99.207031 108.152344 87.726562 136.226562 87.726562 Z M 238.359375 113.117188 L 136.226562 113.117188 C 115.15625 113.117188 95.992188 121.746094 82.09375 135.648438 C 68.191406 149.542969 59.558594 168.710938 59.558594 189.78125 C 59.558594 210.851562 68.191406 230.015625 82.09375 243.917969 C 95.992188 257.816406 115.15625 266.449219 136.226562 266.449219 L 161.914062 266.449219 C 168.925781 266.449219 174.609375 272.132812 174.609375 279.144531 L 174.609375 306.21875 L 213 270.4375 C 215.320312 267.984375 218.601562 266.449219 222.253906 266.449219 L 238.359375 266.449219 C 259.421875 266.449219 278.589844 257.816406 292.492188 243.917969 C 306.386719 230.015625 315.015625 210.851562 315.015625 189.78125 C 315.015625 168.710938 306.386719 149.542969 292.492188 135.648438 C 278.589844 121.746094 259.421875 113.117188 238.359375 113.117188 Z M 238.359375 113.117188 " fill-opacity="1" fill-rule="nonzero"/><path fill="#aa70e0" d="M 178.664062 49.359375 L 195.921875 49.359375 L 195.921875 101.726562 L 178.664062 101.726562 Z M 178.664062 49.359375 " fill-opacity="1" fill-rule="evenodd"/><g clip-path="url(#f399c6ae8a)"><path fill="#aa70e0" d="M 187.289062 25.5625 C 199.777344 25.5625 209.902344 35.6875 209.902344 48.167969 C 209.902344 60.660156 199.777344 70.785156 187.289062 70.785156 C 174.808594 70.785156 164.683594 60.660156 164.683594 48.167969 C 164.683594 35.6875 174.808594 25.5625 187.289062 25.5625 Z M 187.289062 25.5625 " fill-opacity="1" fill-rule="evenodd"/></g><g clip-path="url(#df54b65680)"><path fill="#aa70e0" d="M 41.527344 219.957031 C 24.859375 219.957031 11.355469 206.441406 11.355469 189.78125 C 11.355469 173.121094 24.859375 159.609375 41.527344 159.609375 Z M 41.527344 219.957031 " fill-opacity="1" fill-rule="evenodd"/></g><g clip-path="url(#c3ea2476a0)"><path fill="#aa70e0" d="M 333.476562 219.957031 C 350.136719 219.957031 363.640625 206.441406 363.640625 189.78125 C 363.640625 173.121094 350.136719 159.609375 333.476562 159.609375 Z M 333.476562 219.957031 " fill-opacity="1" fill-rule="evenodd"/></g><path fill="#aa70e0" d="M 145.949219 153.671875 C 153.324219 153.671875 159.363281 159.710938 159.363281 167.085938 L 159.363281 207.699219 C 159.363281 215.074219 153.324219 221.105469 145.949219 221.105469 C 138.574219 221.105469 132.535156 215.074219 132.535156 207.699219 L 132.535156 167.085938 C 132.535156 159.710938 138.574219 153.671875 145.949219 153.671875 Z M 145.949219 153.671875 " fill-opacity="1" fill-rule="evenodd"/><path fill="#aa70e0" d="M 228.628906 153.671875 L 228.636719 153.671875 C 236.011719 153.671875 242.050781 159.710938 242.050781 167.085938 L 242.050781 207.699219 C 242.050781 215.074219 236.011719 221.105469 228.636719 221.105469 L 228.628906 221.105469 C 221.253906 221.105469 215.222656 215.074219 215.222656 207.699219 L 215.222656 167.085938 C 215.222656 159.710938 221.253906 153.671875 228.628906 153.671875 Z M 228.628906 153.671875 " fill-opacity="1" fill-rule="evenodd"/></svg>