<svg xmlns="http://www.w3.org/2000/svg" xmlns:xlink="http://www.w3.org/1999/xlink" width="500" zoomAndPan="magnify" viewBox="0 0 375 374.999991" height="500" preserveAspectRatio="xMidYMid meet" version="1.0"><defs><clipPath id="dbf03a6379"><path d="M 17.25 0 L 357.75 0 C 367.277344 0 375 7.722656 375 17.25 L 375 357.75 C 375 367.277344 367.277344 375 357.75 375 L 17.25 375 C 7.722656 375 0 367.277344 0 357.75 L 0 17.25 C 0 7.722656 7.722656 0 17.25 0 Z M 17.25 0 " clip-rule="nonzero"/></clipPath><linearGradient x1="62.210999" gradientTransform="matrix(4.018596, 0, 0, 4.018596, 0, 0)" y1="0" x2="62.210999" gradientUnits="userSpaceOnUse" y2="124.421567" id="f7ed20a764"><stop stop-opacity="1" stop-color="rgb(43.899536%, 34.899902%, 88.598633%)" offset="0"/><stop stop-opacity="1" stop-color="rgb(44.076538%, 34.970093%, 88.592529%)" offset="0.015625"/><stop stop-opacity="1" stop-color="rgb(44.433594%, 35.110474%, 88.580322%)" offset="0.03125"/><stop stop-opacity="1" stop-color="rgb(44.789124%, 35.250854%, 88.568115%)" offset="0.046875"/><stop stop-opacity="1" stop-color="rgb(45.146179%, 35.391235%, 88.555908%)" offset="0.0625"/><stop stop-opacity="1" stop-color="rgb(45.501709%, 35.531616%, 88.542175%)" offset="0.078125"/><stop stop-opacity="1" stop-color="rgb(45.858765%, 35.671997%, 88.529968%)" offset="0.09375"/><stop stop-opacity="1" stop-color="rgb(46.214294%, 35.813904%, 88.517761%)" offset="0.109375"/><stop stop-opacity="1" stop-color="rgb(46.57135%, 35.954285%, 88.505554%)" offset="0.125"/><stop stop-opacity="1" stop-color="rgb(46.92688%, 36.094666%, 88.493347%)" offset="0.140625"/><stop stop-opacity="1" stop-color="rgb(47.283936%, 36.235046%, 88.479614%)" offset="0.15625"/><stop stop-opacity="1" stop-color="rgb(47.639465%, 36.375427%, 88.467407%)" offset="0.171875"/><stop stop-opacity="1" stop-color="rgb(47.994995%, 36.515808%, 88.4552%)" offset="0.1875"/><stop stop-opacity="1" stop-color="rgb(48.352051%, 36.656189%, 88.442993%)" offset="0.203125"/><stop stop-opacity="1" stop-color="rgb(48.707581%, 36.798096%, 88.430786%)" offset="0.21875"/><stop stop-opacity="1" stop-color="rgb(49.064636%, 36.938477%, 88.418579%)" offset="0.234375"/><stop stop-opacity="1" stop-color="rgb(49.420166%, 37.078857%, 88.404846%)" offset="0.25"/><stop stop-opacity="1" stop-color="rgb(49.777222%, 37.219238%, 88.392639%)" offset="0.265625"/><stop stop-opacity="1" stop-color="rgb(50.132751%, 37.359619%, 88.380432%)" offset="0.28125"/><stop stop-opacity="1" stop-color="rgb(50.489807%, 37.5%, 88.368225%)" offset="0.296875"/><stop stop-opacity="1" stop-color="rgb(50.845337%, 37.641907%, 88.356018%)" offset="0.3125"/><stop stop-opacity="1" stop-color="rgb(51.202393%, 37.782288%, 88.342285%)" offset="0.328125"/><stop stop-opacity="1" stop-color="rgb(51.557922%, 37.922668%, 88.330078%)" offset="0.34375"/><stop stop-opacity="1" stop-color="rgb(51.914978%, 38.063049%, 88.317871%)" offset="0.359375"/><stop stop-opacity="1" stop-color="rgb(52.270508%, 38.20343%, 88.305664%)" offset="0.375"/><stop stop-opacity="1" stop-color="rgb(52.627563%, 38.343811%, 88.293457%)" offset="0.390625"/><stop stop-opacity="1" stop-color="rgb(52.983093%, 38.485718%, 88.279724%)" offset="0.40625"/><stop stop-opacity="1" stop-color="rgb(53.340149%, 38.626099%, 88.267517%)" offset="0.421875"/><stop stop-opacity="1" stop-color="rgb(53.695679%, 38.766479%, 88.25531%)" offset="0.4375"/><stop stop-opacity="1" stop-color="rgb(54.051208%, 38.90686%, 88.243103%)" offset="0.453125"/><stop stop-opacity="1" stop-color="rgb(54.408264%, 39.047241%, 88.230896%)" offset="0.46875"/><stop stop-opacity="1" stop-color="rgb(54.763794%, 39.187622%, 88.217163%)" offset="0.484375"/><stop stop-opacity="1" stop-color="rgb(55.12085%, 39.329529%, 88.204956%)" offset="0.5"/><stop stop-opacity="1" stop-color="rgb(55.476379%, 39.46991%, 88.192749%)" offset="0.515625"/><stop stop-opacity="1" stop-color="rgb(55.833435%, 39.610291%, 88.180542%)" offset="0.53125"/><stop stop-opacity="1" stop-color="rgb(56.188965%, 39.750671%, 88.168335%)" offset="0.546875"/><stop stop-opacity="1" stop-color="rgb(56.546021%, 39.891052%, 88.154602%)" offset="0.5625"/><stop stop-opacity="1" stop-color="rgb(56.90155%, 40.031433%, 88.142395%)" offset="0.578125"/><stop stop-opacity="1" stop-color="rgb(57.258606%, 40.171814%, 88.130188%)" offset="0.59375"/><stop stop-opacity="1" stop-color="rgb(57.614136%, 40.313721%, 88.117981%)" offset="0.609375"/><stop stop-opacity="1" stop-color="rgb(57.971191%, 40.454102%, 88.105774%)" offset="0.625"/><stop stop-opacity="1" stop-color="rgb(58.326721%, 40.594482%, 88.093567%)" offset="0.640625"/><stop stop-opacity="1" stop-color="rgb(58.683777%, 40.734863%, 88.079834%)" offset="0.65625"/><stop stop-opacity="1" stop-color="rgb(59.039307%, 40.875244%, 88.067627%)" offset="0.671875"/><stop stop-opacity="1" stop-color="rgb(59.396362%, 41.015625%, 88.05542%)" offset="0.6875"/><stop stop-opacity="1" stop-color="rgb(59.751892%, 41.157532%, 88.043213%)" offset="0.703125"/><stop stop-opacity="1" stop-color="rgb(60.107422%, 41.297913%, 88.031006%)" offset="0.71875"/><stop stop-opacity="1" stop-color="rgb(60.464478%, 41.438293%, 88.017273%)" offset="0.734375"/><stop stop-opacity="1" stop-color="rgb(60.820007%, 41.578674%, 88.005066%)" offset="0.75"/><stop stop-opacity="1" stop-color="rgb(61.177063%, 41.719055%, 87.992859%)" offset="0.765625"/><stop stop-opacity="1" stop-color="rgb(61.532593%, 41.859436%, 87.980652%)" offset="0.78125"/><stop stop-opacity="1" stop-color="rgb(61.889648%, 42.001343%, 87.968445%)" offset="0.796875"/><stop stop-opacity="1" stop-color="rgb(62.245178%, 42.141724%, 87.954712%)" offset="0.8125"/><stop stop-opacity="1" stop-color="rgb(62.602234%, 42.282104%, 87.942505%)" offset="0.828125"/><stop stop-opacity="1" stop-color="rgb(62.957764%, 42.422485%, 87.930298%)" offset="0.84375"/><stop stop-opacity="1" stop-color="rgb(63.314819%, 42.562866%, 87.918091%)" offset="0.859375"/><stop stop-opacity="1" stop-color="rgb(63.670349%, 42.703247%, 87.905884%)" offset="0.875"/><stop stop-opacity="1" stop-color="rgb(64.027405%, 42.845154%, 87.892151%)" offset="0.890625"/><stop stop-opacity="1" stop-color="rgb(64.382935%, 42.985535%, 87.879944%)" offset="0.90625"/><stop stop-opacity="1" stop-color="rgb(64.73999%, 43.125916%, 87.867737%)" offset="0.921875"/><stop stop-opacity="1" stop-color="rgb(65.09552%, 43.266296%, 87.85553%)" offset="0.9375"/><stop stop-opacity="1" stop-color="rgb(65.452576%, 43.406677%, 87.843323%)" offset="0.953125"/><stop stop-opacity="1" stop-color="rgb(65.808105%, 43.547058%, 87.82959%)" offset="0.96875"/><stop stop-opacity="1" stop-color="rgb(66.163635%, 43.687439%, 87.817383%)" offset="0.984375"/><stop stop-opacity="1" stop-color="rgb(66.520691%, 43.829346%, 87.805176%)" offset="1"/></linearGradient><clipPath id="e8181403e3"><path d="M 119 153.769531 L 331 153.769531 L 331 375 L 119 375 Z M 119 153.769531 " clip-rule="nonzero"/></clipPath><clipPath id="cb24d484cc"><path d="M 86.660156 246 L 111 246 L 111 323 L 86.660156 323 Z M 86.660156 246 " clip-rule="nonzero"/></clipPath><clipPath id="4663787faa"><path d="M 340 246 L 364.160156 246 L 364.160156 323 L 340 323 Z M 340 246 " clip-rule="nonzero"/></clipPath></defs><g clip-path="url(#dbf03a6379)"><path stroke-linecap="butt" transform="matrix(0.75, 0, 0, 0.75, 0.0000045, 0)" fill="none" stroke-linejoin="miter" d="M 22.999997 0 L 477.000056 0 C 489.703182 0 500.000059 10.296876 500.000059 23.000003 L 500.000059 477.000062 C 500.000059 489.703188 489.703182 500.000065 477.000056 500.000065 L 22.999997 500.000065 C 10.29687 500.000065 -0.000006 489.703188 -0.000006 477.000062 L -0.000006 23.000003 C -0.000006 10.296876 10.29687 0 22.999997 0 Z M 22.999997 0 " stroke="url(#f7ed20a764)" stroke-width="8" stroke-miterlimit="4"/></g><g clip-path="url(#e8181403e3)"><path fill="#aa70e0" d="M 284.253906 374.980469 L 166.738281 374.980469 C 140.859375 374.980469 119.863281 353.984375 119.863281 328.265625 L 119.863281 252.09375 C 119.863281 226.214844 140.859375 205.21875 166.738281 205.21875 L 220.453125 205.21875 L 220.613281 187.3125 C 213.613281 185.195312 208.40625 178.6875 208.40625 170.875 C 208.40625 161.433594 216.21875 153.78125 225.660156 153.78125 C 235.101562 153.78125 242.914062 161.433594 242.914062 170.875 C 242.914062 178.6875 237.542969 185.359375 230.378906 187.476562 L 230.21875 205.21875 L 284.253906 205.21875 C 309.972656 205.21875 330.96875 226.214844 330.96875 252.09375 L 330.96875 328.429688 C 330.96875 354.148438 309.972656 374.980469 284.253906 374.980469 Z M 181.386719 301.085938 C 167.550781 301.085938 156.648438 290.179688 156.648438 276.507812 C 156.648438 262.671875 167.550781 251.769531 181.386719 251.769531 C 195.222656 251.769531 205.964844 262.671875 205.964844 276.507812 C 205.964844 290.179688 195.222656 301.085938 181.386719 301.085938 Z M 181.386719 261.535156 C 172.925781 261.535156 166.414062 268.042969 166.414062 276.507812 C 166.414062 284.808594 172.925781 291.320312 181.386719 291.320312 C 189.6875 291.320312 196.363281 284.808594 196.363281 276.507812 C 196.363281 268.042969 189.6875 261.535156 181.386719 261.535156 Z M 269.769531 300.109375 C 255.933594 300.109375 244.867188 289.039062 244.867188 275.367188 C 244.867188 261.695312 255.933594 250.628906 269.769531 250.628906 C 283.277344 250.628906 294.347656 261.695312 294.347656 275.367188 C 294.347656 289.039062 283.277344 300.109375 269.769531 300.109375 Z M 269.769531 260.394531 C 261.304688 260.394531 254.632812 267.230469 254.632812 275.367188 C 254.632812 283.667969 261.304688 290.503906 269.769531 290.503906 C 278.070312 290.503906 284.582031 283.667969 284.582031 275.367188 C 284.582031 266.90625 277.90625 260.394531 269.769531 260.394531 Z M 223.707031 329.730469 C 214.429688 329.730469 206.289062 325.335938 201.734375 321.429688 C 199.617188 319.640625 199.453125 316.386719 201.246094 314.59375 C 203.035156 312.640625 205.964844 312.316406 208.082031 314.269531 C 209.546875 315.570312 223.707031 326.800781 237.214844 314.433594 C 239.167969 312.640625 242.097656 312.640625 244.214844 314.59375 C 246.003906 316.710938 246.003906 319.640625 244.050781 321.59375 C 237.214844 327.453125 230.21875 329.730469 223.707031 329.730469 Z M 223.707031 329.730469 " fill-opacity="1" fill-rule="evenodd"/></g><g clip-path="url(#cb24d484cc)"><path fill="#aa70e0" d="M 110.097656 322.734375 L 108.144531 322.734375 C 96.425781 322.734375 86.660156 313.128906 86.660156 301.25 L 86.660156 268.042969 C 86.660156 256.164062 96.425781 246.394531 108.144531 246.394531 L 110.421875 246.394531 C 110.257812 248.1875 110.097656 250.140625 110.097656 252.09375 Z M 110.097656 322.734375 " fill-opacity="1" fill-rule="evenodd"/></g><g clip-path="url(#4663787faa)"><path fill="#aa70e0" d="M 342.6875 322.734375 L 340.734375 322.734375 L 340.734375 252.09375 C 340.734375 249.976562 340.570312 248.023438 340.410156 246.234375 L 342.6875 246.234375 C 354.734375 246.234375 364.5 255.835938 364.5 267.882812 L 364.5 301.25 C 364.5 313.292969 354.734375 322.734375 342.6875 322.734375 Z M 342.6875 322.734375 " fill-opacity="1" fill-rule="evenodd"/></g></svg>