<svg xmlns="http://www.w3.org/2000/svg" xmlns:xlink="http://www.w3.org/1999/xlink" width="500" zoomAndPan="magnify" viewBox="0 0 375 374.999991" height="500" preserveAspectRatio="xMidYMid meet" version="1.0"><defs><clipPath id="4e2abc6846"><path d="M 75 0 L 300 0 C 319.890625 0 338.96875 7.902344 353.03125 21.96875 C 367.097656 36.03125 375 55.109375 375 75 L 375 300 C 375 319.890625 367.097656 338.96875 353.03125 353.03125 C 338.96875 367.097656 319.890625 375 300 375 L 75 375 C 55.109375 375 36.03125 367.097656 21.96875 353.03125 C 7.902344 338.96875 0 319.890625 0 300 L 0 75 C 0 55.109375 7.902344 36.03125 21.96875 21.96875 C 36.03125 7.902344 55.109375 0 75 0 Z M 75 0 " clip-rule="nonzero"/></clipPath><linearGradient x1="62.210999" gradientTransform="matrix(4.018596, 0, 0, 4.018596, 0, 0)" y1="0" x2="62.210999" gradientUnits="userSpaceOnUse" y2="124.421567" id="0556f758dd"><stop stop-opacity="1" stop-color="rgb(43.899536%, 34.899902%, 88.598633%)" offset="0"/><stop stop-opacity="1" stop-color="rgb(44.076538%, 34.970093%, 88.592529%)" offset="0.015625"/><stop stop-opacity="1" stop-color="rgb(44.433594%, 35.110474%, 88.580322%)" offset="0.03125"/><stop stop-opacity="1" stop-color="rgb(44.789124%, 35.250854%, 88.568115%)" offset="0.046875"/><stop stop-opacity="1" stop-color="rgb(45.146179%, 35.391235%, 88.555908%)" offset="0.0625"/><stop stop-opacity="1" stop-color="rgb(45.501709%, 35.531616%, 88.542175%)" offset="0.078125"/><stop stop-opacity="1" stop-color="rgb(45.858765%, 35.671997%, 88.529968%)" offset="0.09375"/><stop stop-opacity="1" stop-color="rgb(46.214294%, 35.813904%, 88.517761%)" offset="0.109375"/><stop stop-opacity="1" stop-color="rgb(46.57135%, 35.954285%, 88.505554%)" offset="0.125"/><stop stop-opacity="1" stop-color="rgb(46.92688%, 36.094666%, 88.493347%)" offset="0.140625"/><stop stop-opacity="1" stop-color="rgb(47.283936%, 36.235046%, 88.479614%)" offset="0.15625"/><stop stop-opacity="1" stop-color="rgb(47.639465%, 36.375427%, 88.467407%)" offset="0.171875"/><stop stop-opacity="1" stop-color="rgb(47.994995%, 36.515808%, 88.4552%)" offset="0.1875"/><stop stop-opacity="1" stop-color="rgb(48.352051%, 36.656189%, 88.442993%)" offset="0.203125"/><stop stop-opacity="1" stop-color="rgb(48.707581%, 36.798096%, 88.430786%)" offset="0.21875"/><stop stop-opacity="1" stop-color="rgb(49.064636%, 36.938477%, 88.418579%)" offset="0.234375"/><stop stop-opacity="1" stop-color="rgb(49.420166%, 37.078857%, 88.404846%)" offset="0.25"/><stop stop-opacity="1" stop-color="rgb(49.777222%, 37.219238%, 88.392639%)" offset="0.265625"/><stop stop-opacity="1" stop-color="rgb(50.132751%, 37.359619%, 88.380432%)" offset="0.28125"/><stop stop-opacity="1" stop-color="rgb(50.489807%, 37.5%, 88.368225%)" offset="0.296875"/><stop stop-opacity="1" stop-color="rgb(50.845337%, 37.641907%, 88.356018%)" offset="0.3125"/><stop stop-opacity="1" stop-color="rgb(51.202393%, 37.782288%, 88.342285%)" offset="0.328125"/><stop stop-opacity="1" stop-color="rgb(51.557922%, 37.922668%, 88.330078%)" offset="0.34375"/><stop stop-opacity="1" stop-color="rgb(51.914978%, 38.063049%, 88.317871%)" offset="0.359375"/><stop stop-opacity="1" stop-color="rgb(52.270508%, 38.20343%, 88.305664%)" offset="0.375"/><stop stop-opacity="1" stop-color="rgb(52.627563%, 38.343811%, 88.293457%)" offset="0.390625"/><stop stop-opacity="1" stop-color="rgb(52.983093%, 38.485718%, 88.279724%)" offset="0.40625"/><stop stop-opacity="1" stop-color="rgb(53.340149%, 38.626099%, 88.267517%)" offset="0.421875"/><stop stop-opacity="1" stop-color="rgb(53.695679%, 38.766479%, 88.25531%)" offset="0.4375"/><stop stop-opacity="1" stop-color="rgb(54.051208%, 38.90686%, 88.243103%)" offset="0.453125"/><stop stop-opacity="1" stop-color="rgb(54.408264%, 39.047241%, 88.230896%)" offset="0.46875"/><stop stop-opacity="1" stop-color="rgb(54.763794%, 39.187622%, 88.217163%)" offset="0.484375"/><stop stop-opacity="1" stop-color="rgb(55.12085%, 39.329529%, 88.204956%)" offset="0.5"/><stop stop-opacity="1" stop-color="rgb(55.476379%, 39.46991%, 88.192749%)" offset="0.515625"/><stop stop-opacity="1" stop-color="rgb(55.833435%, 39.610291%, 88.180542%)" offset="0.53125"/><stop stop-opacity="1" stop-color="rgb(56.188965%, 39.750671%, 88.168335%)" offset="0.546875"/><stop stop-opacity="1" stop-color="rgb(56.546021%, 39.891052%, 88.154602%)" offset="0.5625"/><stop stop-opacity="1" stop-color="rgb(56.90155%, 40.031433%, 88.142395%)" offset="0.578125"/><stop stop-opacity="1" stop-color="rgb(57.258606%, 40.171814%, 88.130188%)" offset="0.59375"/><stop stop-opacity="1" stop-color="rgb(57.614136%, 40.313721%, 88.117981%)" offset="0.609375"/><stop stop-opacity="1" stop-color="rgb(57.971191%, 40.454102%, 88.105774%)" offset="0.625"/><stop stop-opacity="1" stop-color="rgb(58.326721%, 40.594482%, 88.093567%)" offset="0.640625"/><stop stop-opacity="1" stop-color="rgb(58.683777%, 40.734863%, 88.079834%)" offset="0.65625"/><stop stop-opacity="1" stop-color="rgb(59.039307%, 40.875244%, 88.067627%)" offset="0.671875"/><stop stop-opacity="1" stop-color="rgb(59.396362%, 41.015625%, 88.05542%)" offset="0.6875"/><stop stop-opacity="1" stop-color="rgb(59.751892%, 41.157532%, 88.043213%)" offset="0.703125"/><stop stop-opacity="1" stop-color="rgb(60.107422%, 41.297913%, 88.031006%)" offset="0.71875"/><stop stop-opacity="1" stop-color="rgb(60.464478%, 41.438293%, 88.017273%)" offset="0.734375"/><stop stop-opacity="1" stop-color="rgb(60.820007%, 41.578674%, 88.005066%)" offset="0.75"/><stop stop-opacity="1" stop-color="rgb(61.177063%, 41.719055%, 87.992859%)" offset="0.765625"/><stop stop-opacity="1" stop-color="rgb(61.532593%, 41.859436%, 87.980652%)" offset="0.78125"/><stop stop-opacity="1" stop-color="rgb(61.889648%, 42.001343%, 87.968445%)" offset="0.796875"/><stop stop-opacity="1" stop-color="rgb(62.245178%, 42.141724%, 87.954712%)" offset="0.8125"/><stop stop-opacity="1" stop-color="rgb(62.602234%, 42.282104%, 87.942505%)" offset="0.828125"/><stop stop-opacity="1" stop-color="rgb(62.957764%, 42.422485%, 87.930298%)" offset="0.84375"/><stop stop-opacity="1" stop-color="rgb(63.314819%, 42.562866%, 87.918091%)" offset="0.859375"/><stop stop-opacity="1" stop-color="rgb(63.670349%, 42.703247%, 87.905884%)" offset="0.875"/><stop stop-opacity="1" stop-color="rgb(64.027405%, 42.845154%, 87.892151%)" offset="0.890625"/><stop stop-opacity="1" stop-color="rgb(64.382935%, 42.985535%, 87.879944%)" offset="0.90625"/><stop stop-opacity="1" stop-color="rgb(64.73999%, 43.125916%, 87.867737%)" offset="0.921875"/><stop stop-opacity="1" stop-color="rgb(65.09552%, 43.266296%, 87.85553%)" offset="0.9375"/><stop stop-opacity="1" stop-color="rgb(65.452576%, 43.406677%, 87.843323%)" offset="0.953125"/><stop stop-opacity="1" stop-color="rgb(65.808105%, 43.547058%, 87.82959%)" offset="0.96875"/><stop stop-opacity="1" stop-color="rgb(66.163635%, 43.687439%, 87.817383%)" offset="0.984375"/><stop stop-opacity="1" stop-color="rgb(66.520691%, 43.829346%, 87.805176%)" offset="1"/></linearGradient><clipPath id="a53fe73dc1"><path d="M 81 163.371094 L 293 163.371094 L 293 375 L 81 375 Z M 81 163.371094 " clip-rule="nonzero"/></clipPath><clipPath id="a0e6929307"><path d="M 48.578125 256 L 73 256 L 73 333 L 48.578125 333 Z M 48.578125 256 " clip-rule="nonzero"/></clipPath><clipPath id="350feecb30"><path d="M 302 255 L 326.078125 255 L 326.078125 333 L 302 333 Z M 302 255 " clip-rule="nonzero"/></clipPath></defs><g clip-path="url(#4e2abc6846)"><path stroke-linecap="butt" transform="matrix(0.75, 0, 0, 0.75, 0.0000045, 0)" fill="none" stroke-linejoin="miter" d="M 100.000007 0 L 400.000046 0 C 426.520883 0 451.958386 10.53646 470.708388 29.29167 C 489.463599 48.041673 500.000059 73.479176 500.000059 100.000013 L 500.000059 400.000052 C 500.000059 426.520889 489.463599 451.958392 470.708388 470.708394 C 451.958386 489.463605 426.520883 500.000065 400.000046 500.000065 L 100.000007 500.000065 C 73.47917 500.000065 48.041667 489.463605 29.291664 470.708394 C 10.536454 451.958392 -0.000006 426.520889 -0.000006 400.000052 L -0.000006 100.000013 C -0.000006 73.479176 10.536454 48.041673 29.291664 29.29167 C 48.041667 10.53646 73.47917 0 100.000007 0 Z M 100.000007 0 " stroke="url(#0556f758dd)" stroke-width="26" stroke-miterlimit="4"/></g><g clip-path="url(#a53fe73dc1)"><path fill="#aa70e0" d="M 246.175781 384.582031 L 128.660156 384.582031 C 102.78125 384.582031 81.785156 363.585938 81.785156 337.867188 L 81.785156 261.695312 C 81.785156 235.816406 102.78125 214.820312 128.660156 214.820312 L 182.371094 214.820312 L 182.535156 196.914062 C 175.535156 194.796875 170.328125 188.289062 170.328125 180.476562 C 170.328125 171.035156 178.140625 163.386719 187.582031 163.386719 C 197.019531 163.386719 204.832031 171.035156 204.832031 180.476562 C 204.832031 188.289062 199.460938 194.960938 192.300781 197.078125 L 192.136719 214.820312 L 246.175781 214.820312 C 271.894531 214.820312 292.890625 235.816406 292.890625 261.695312 L 292.890625 338.03125 C 292.890625 363.75 271.894531 384.582031 246.175781 384.582031 Z M 143.308594 310.6875 C 129.472656 310.6875 118.566406 299.78125 118.566406 286.109375 C 118.566406 272.273438 129.472656 261.371094 143.308594 261.371094 C 157.144531 261.371094 167.886719 272.273438 167.886719 286.109375 C 167.886719 299.78125 157.144531 310.6875 143.308594 310.6875 Z M 143.308594 271.136719 C 134.84375 271.136719 128.335938 277.644531 128.335938 286.109375 C 128.335938 294.410156 134.84375 300.921875 143.308594 300.921875 C 151.609375 300.921875 158.28125 294.410156 158.28125 286.109375 C 158.28125 277.644531 151.609375 271.136719 143.308594 271.136719 Z M 231.691406 309.710938 C 217.855469 309.710938 206.785156 298.640625 206.785156 284.96875 C 206.785156 271.296875 217.855469 260.230469 231.691406 260.230469 C 245.199219 260.230469 256.265625 271.296875 256.265625 284.96875 C 256.265625 298.640625 245.199219 309.710938 231.691406 309.710938 Z M 231.691406 269.996094 C 223.226562 269.996094 216.550781 276.832031 216.550781 284.96875 C 216.550781 293.269531 223.226562 300.105469 231.691406 300.105469 C 239.992188 300.105469 246.5 293.269531 246.5 284.96875 C 246.5 276.507812 239.828125 269.996094 231.691406 269.996094 Z M 185.628906 339.332031 C 176.351562 339.332031 168.210938 334.9375 163.652344 331.03125 C 161.539062 329.242188 161.375 325.988281 163.164062 324.195312 C 164.957031 322.242188 167.886719 321.917969 170 323.871094 C 171.46875 325.171875 185.628906 336.402344 199.136719 324.035156 C 201.089844 322.242188 204.019531 322.242188 206.136719 324.195312 C 207.925781 326.3125 207.925781 329.242188 205.972656 331.195312 C 199.136719 337.054688 192.136719 339.332031 185.628906 339.332031 Z M 185.628906 339.332031 " fill-opacity="1" fill-rule="evenodd"/></g><g clip-path="url(#a0e6929307)"><path fill="#aa70e0" d="M 72.015625 332.335938 L 70.0625 332.335938 C 58.34375 332.335938 48.578125 322.730469 48.578125 310.851562 L 48.578125 277.644531 C 48.578125 265.765625 58.34375 256 70.0625 256 L 72.34375 256 C 72.179688 257.789062 72.015625 259.742188 72.015625 261.695312 Z M 72.015625 332.335938 " fill-opacity="1" fill-rule="evenodd"/></g><g clip-path="url(#350feecb30)"><path fill="#aa70e0" d="M 304.609375 332.335938 L 302.65625 332.335938 L 302.65625 261.695312 C 302.65625 259.578125 302.492188 257.625 302.328125 255.835938 L 304.609375 255.835938 C 316.652344 255.835938 326.417969 265.4375 326.417969 277.484375 L 326.417969 310.851562 C 326.417969 322.894531 316.652344 332.335938 304.609375 332.335938 Z M 304.609375 332.335938 " fill-opacity="1" fill-rule="evenodd"/></g></svg>